<?xml version="1.0" encoding="UTF-8" standalone="no"?>
<!DOCTYPE svg PUBLIC "-//W3C//DTD SVG 1.1//EN"
 "http://www.w3.org/Graphics/SVG/1.1/DTD/svg11.dtd">
<!-- Generated by graphviz version 2.40.1 (20161225.0304)
 -->
<!-- Title: state transitions Pages: 1 -->
<svg width="585pt" height="282pt"
 viewBox="0.00 0.00 584.93 282.00" xmlns="http://www.w3.org/2000/svg" xmlns:xlink="http://www.w3.org/1999/xlink">
<g id="graph0" class="graph" transform="scale(1 1) rotate(0) translate(4 278)">
<title>state transitions</title>
<polygon fill="#ffffff" stroke="transparent" points="-4,4 -4,-278 580.93,-278 580.93,4 -4,4"/>
<g id="clust1" class="cluster state regular">
<title>cluster_w_next_state</title>
<path fill="none" stroke="#000000" stroke-width="2" d="M20,-8C20,-8 552,-8 552,-8 558,-8 564,-14 564,-20 564,-20 564,-254 564,-254 564,-260 558,-266 552,-266 552,-266 20,-266 20,-266 14,-266 8,-260 8,-254 8,-254 8,-20 8,-20 8,-14 14,-8 20,-8"/>
<text text-anchor="start" x="250.654" y="-247.2" font-family="Helvetica,sans-Serif" font-size="12.00" fill="#000000">w_next_state</text>
</g>
<!-- w_next_state -->
<!-- WAIT_FOR_NEW_LINE -->
<g id="node2" class="node state regular">
<title>WAIT_FOR_NEW_LINE</title>
<polygon fill="#ffffff" fill-opacity="0.003922" stroke="transparent" stroke-width="2" points="343.5,-228 192.5,-228 192.5,-192 343.5,-192 343.5,-228"/>
<text text-anchor="start" x="203.5002" y="-206.2" font-family="Helvetica,sans-Serif" font-size="12.00" fill="#000000">WAIT_FOR_NEW_LINE</text>
<path fill="none" stroke="#000000" stroke-width="2" d="M204.8333,-193C204.8333,-193 331.1667,-193 331.1667,-193 336.8333,-193 342.5,-198.6667 342.5,-204.3333 342.5,-204.3333 342.5,-215.6667 342.5,-215.6667 342.5,-221.3333 336.8333,-227 331.1667,-227 331.1667,-227 204.8333,-227 204.8333,-227 199.1667,-227 193.5,-221.3333 193.5,-215.6667 193.5,-215.6667 193.5,-204.3333 193.5,-204.3333 193.5,-198.6667 199.1667,-193 204.8333,-193"/>
</g>
<!-- WAIT_FOR_NEW_LINE&#45;&gt;WAIT_FOR_NEW_LINE -->
<g id="edge3" class="edge transition">
<title>WAIT_FOR_NEW_LINE&#45;&gt;WAIT_FOR_NEW_LINE</title>
<path fill="none" stroke="#000000" d="M343.629,-214.551C356.5488,-213.9291 365.5,-212.4121 365.5,-210 365.5,-208.304 361.0747,-207.0505 353.956,-206.2396"/>
<polygon fill="#000000" stroke="#000000" points="353.867,-202.7226 343.629,-205.449 353.3327,-209.7022 353.867,-202.7226"/>
<text text-anchor="start" x="365.5" y="-207" font-family="Helvetica,sans-Serif" font-size="10.00" fill="#000000">not (r_lval = &#39;1&#39;) &#160;&#160;</text>
</g>
<!-- BUFFER_LINE -->
<g id="node3" class="node state regular">
<title>BUFFER_LINE</title>
<polygon fill="#ffffff" fill-opacity="0.003922" stroke="transparent" stroke-width="2" points="353.5,-134 250.5,-134 250.5,-98 353.5,-98 353.5,-134"/>
<text text-anchor="start" x="261.8326" y="-112.2" font-family="Helvetica,sans-Serif" font-size="12.00" fill="#000000">BUFFER_LINE</text>
<path fill="none" stroke="#000000" stroke-width="2" d="M262.8333,-99C262.8333,-99 341.1667,-99 341.1667,-99 346.8333,-99 352.5,-104.6667 352.5,-110.3333 352.5,-110.3333 352.5,-121.6667 352.5,-121.6667 352.5,-127.3333 346.8333,-133 341.1667,-133 341.1667,-133 262.8333,-133 262.8333,-133 257.1667,-133 251.5,-127.3333 251.5,-121.6667 251.5,-121.6667 251.5,-110.3333 251.5,-110.3333 251.5,-104.6667 257.1667,-99 262.8333,-99"/>
</g>
<!-- WAIT_FOR_NEW_LINE&#45;&gt;BUFFER_LINE -->
<g id="edge2" class="edge transition">
<title>WAIT_FOR_NEW_LINE&#45;&gt;BUFFER_LINE</title>
<path fill="none" stroke="#000000" d="M256.5584,-191.9642C250.4481,-179.8839 245.4335,-163.8933 252.136,-151 254.0035,-147.4075 256.4275,-144.1069 259.1998,-141.091"/>
<polygon fill="#000000" stroke="#000000" points="261.7158,-143.5318 266.6899,-134.1772 256.9678,-138.3881 261.7158,-143.5318"/>
<text text-anchor="start" x="252" y="-166" font-family="Helvetica,sans-Serif" font-size="10.00" fill="#000000">r_lval = &#39;1&#39; &#160;&#160;</text>
<text text-anchor="start" x="252" y="-154" font-family="Helvetica,sans-Serif" font-size="10.00" fill="#000000">not (r_latest_action = BUFFER_LINE) &#160;&#160;</text>
</g>
<!-- PROCESS_FIRST_COLUMN -->
<g id="node4" class="node state regular">
<title>PROCESS_FIRST_COLUMN</title>
<polygon fill="#ffffff" fill-opacity="0.003922" stroke="transparent" stroke-width="2" points="207,-134 27,-134 27,-98 207,-98 207,-134"/>
<text text-anchor="start" x="37.668" y="-112.2" font-family="Helvetica,sans-Serif" font-size="12.00" fill="#000000">PROCESS_FIRST_COLUMN</text>
<path fill="none" stroke="#000000" stroke-width="2" d="M39.3333,-99C39.3333,-99 194.6667,-99 194.6667,-99 200.3333,-99 206,-104.6667 206,-110.3333 206,-110.3333 206,-121.6667 206,-121.6667 206,-127.3333 200.3333,-133 194.6667,-133 194.6667,-133 39.3333,-133 39.3333,-133 33.6667,-133 28,-127.3333 28,-121.6667 28,-121.6667 28,-110.3333 28,-110.3333 28,-104.6667 33.6667,-99 39.3333,-99"/>
</g>
<!-- WAIT_FOR_NEW_LINE&#45;&gt;PROCESS_FIRST_COLUMN -->
<g id="edge1" class="edge transition">
<title>WAIT_FOR_NEW_LINE&#45;&gt;PROCESS_FIRST_COLUMN</title>
<path fill="none" stroke="#000000" d="M192.1819,-204.5387C150.0711,-199.7542 103.5869,-190.9554 90.47,-175 82.6474,-165.4846 86.3976,-153.2928 93.24,-142.4645"/>
<polygon fill="#000000" stroke="#000000" points="96.2241,-144.31 99.2284,-134.15 90.544,-140.2189 96.2241,-144.31"/>
<text text-anchor="start" x="90" y="-166" font-family="Helvetica,sans-Serif" font-size="10.00" fill="#000000">r_latest_action = BUFFER_LINE &#160;&#160;</text>
<text text-anchor="start" x="90" y="-154" font-family="Helvetica,sans-Serif" font-size="10.00" fill="#000000">r_lval = &#39;1&#39; &#160;&#160;</text>
</g>
<!-- BUFFER_LINE&#45;&gt;WAIT_FOR_NEW_LINE -->
<g id="edge5" class="edge transition">
<title>BUFFER_LINE&#45;&gt;WAIT_FOR_NEW_LINE</title>
<path fill="none" stroke="#000000" d="M353.7559,-122.0996C398.7356,-129.5297 453.1811,-144.9974 429,-175 418.9551,-187.4632 386.9199,-195.7186 354.0425,-201.0632"/>
<polygon fill="#000000" stroke="#000000" points="353.1888,-197.6532 343.8356,-202.6299 354.2508,-204.5721 353.1888,-197.6532"/>
<text text-anchor="start" x="434" y="-160" font-family="Helvetica,sans-Serif" font-size="10.00" fill="#000000">not (r_lval = &#39;1&#39;) &#160;&#160;</text>
</g>
<!-- BUFFER_LINE&#45;&gt;BUFFER_LINE -->
<g id="edge4" class="edge transition">
<title>BUFFER_LINE&#45;&gt;BUFFER_LINE</title>
<path fill="none" stroke="#000000" d="M353.5182,-120.7988C366.1211,-120.4434 375.5,-118.8438 375.5,-116 375.5,-114.0005 370.8632,-112.6161 363.7292,-111.8467"/>
<polygon fill="#000000" stroke="#000000" points="363.7191,-108.3392 353.5182,-111.2012 363.2774,-115.3252 363.7191,-108.3392"/>
<text text-anchor="start" x="375.5" y="-113" font-family="Helvetica,sans-Serif" font-size="10.00" fill="#000000">r_lval = &#39;1&#39; &#160;&#160;</text>
</g>
<!-- PROCESS_SECOND_COLUMN -->
<g id="node5" class="node state regular">
<title>PROCESS_SECOND_COLUMN</title>
<polygon fill="#ffffff" fill-opacity="0.003922" stroke="transparent" stroke-width="2" points="313.5,-52 116.5,-52 116.5,-16 313.5,-16 313.5,-52"/>
<text text-anchor="start" x="127.8346" y="-30.2" font-family="Helvetica,sans-Serif" font-size="12.00" fill="#000000">PROCESS_SECOND_COLUMN</text>
<path fill="none" stroke="#000000" stroke-width="2" d="M128.8333,-17C128.8333,-17 301.1667,-17 301.1667,-17 306.8333,-17 312.5,-22.6667 312.5,-28.3333 312.5,-28.3333 312.5,-39.6667 312.5,-39.6667 312.5,-45.3333 306.8333,-51 301.1667,-51 301.1667,-51 128.8333,-51 128.8333,-51 123.1667,-51 117.5,-45.3333 117.5,-39.6667 117.5,-39.6667 117.5,-28.3333 117.5,-28.3333 117.5,-22.6667 123.1667,-17 128.8333,-17"/>
</g>
<!-- PROCESS_FIRST_COLUMN&#45;&gt;PROCESS_SECOND_COLUMN -->
<g id="edge6" class="edge transition">
<title>PROCESS_FIRST_COLUMN&#45;&gt;PROCESS_SECOND_COLUMN</title>
<path fill="none" stroke="#000000" d="M152.0421,-97.8911C160.2758,-92.9255 168.7545,-87.1873 176,-81 183.0704,-74.9622 189.8728,-67.5463 195.7614,-60.4048"/>
<polygon fill="#000000" stroke="#000000" points="198.7562,-62.2605 202.2156,-52.2463 193.2663,-57.9175 198.7562,-62.2605"/>
<text text-anchor="middle" x="188.3895" y="-72" font-family="Helvetica,sans-Serif" font-size="10.00" fill="#000000"> </text>
</g>
<!-- PROCESS_SECOND_COLUMN&#45;&gt;WAIT_FOR_NEW_LINE -->
<g id="edge8" class="edge transition">
<title>PROCESS_SECOND_COLUMN&#45;&gt;WAIT_FOR_NEW_LINE</title>
<path fill="none" stroke="#000000" d="M292.2857,-52.0134C373.9574,-72.9791 493.983,-110.0033 516,-151 521.0467,-160.3972 522.9956,-166.9477 516,-175 505.2517,-187.3717 421.1531,-197.3103 353.8252,-203.3908"/>
<polygon fill="#000000" stroke="#000000" points="353.2533,-199.9277 343.6012,-204.2966 353.871,-206.9004 353.2533,-199.9277"/>
<text text-anchor="start" x="500" y="-113" font-family="Helvetica,sans-Serif" font-size="10.00" fill="#000000">not (r_lval = &#39;1&#39;) &#160;&#160;</text>
</g>
<!-- PROCESS_SECOND_COLUMN&#45;&gt;PROCESS_FIRST_COLUMN -->
<g id="edge7" class="edge transition">
<title>PROCESS_SECOND_COLUMN&#45;&gt;PROCESS_FIRST_COLUMN</title>
<path fill="none" stroke="#000000" d="M147.4548,-52.0041C133.5091,-57.0892 121.7294,-62.9095 117.404,-69 113.5592,-74.4138 112.1178,-81.1349 111.9405,-87.785"/>
<polygon fill="#000000" stroke="#000000" points="108.4588,-88.2009 112.5384,-97.9788 115.4468,-87.791 108.4588,-88.2009"/>
<text text-anchor="start" x="117" y="-72" font-family="Helvetica,sans-Serif" font-size="10.00" fill="#000000">r_lval = &#39;1&#39; &#160;&#160;</text>
</g>
</g>
</svg>
